<svg xmlns="http://www.w3.org/2000/svg" width="96" height="64" viewBox="0 0 96 64">
  <rect width="96" height="64" fill="none"/>
  <rect x="12" y="18" width="40" height="19" fill="#1a1a1a"/>
  <rect x="18" y="12" width="24" height="8" fill="#262626"/>
  <rect x="47" y="18" width="18" height="16" fill="#221b18"/>
  <rect x="58" y="22" width="12" height="9" fill="#d47e27"/>
  <rect x="66" y="24" width="9" height="7" fill="#fff0d9"/>
  <rect x="74" y="27" width="7" height="5" fill="#d47e27"/>
  <rect x="60" y="31" width="12" height="7" fill="#fff0d9"/>
  <rect x="39" y="11" width="8" height="9" fill="#1a1a1a"/>
  <rect x="41" y="8" width="4" height="5" fill="#d8a12e"/>
  <rect x="24" y="6" width="8" height="8" fill="#1a1a1a"/>
  <rect x="26" y="4" width="3" height="4" fill="#d8a12e"/>
  <rect x="10" y="10" width="11" height="8" fill="#d8a12e"/>
  <rect x="6" y="12" width="6" height="5" fill="#1a1a1a"/>
  <rect x="23" y="37" width="7" height="12" fill="#141414"/>
  <rect x="24" y="48" width="8" height="4" fill="#f2c985"/>
  <rect x="38" y="41" width="7" height="12" fill="#141414"/>
  <rect x="39" y="52" width="8" height="4" fill="#f2c985"/>
  <rect x="53" y="38" width="7" height="12" fill="#141414"/>
  <rect x="54" y="49" width="8" height="4" fill="#f2c985"/>
  <rect x="65" y="34" width="7" height="12" fill="#141414"/>
  <rect x="66" y="45" width="8" height="4" fill="#f2c985"/>
  <rect x="24" y="40" width="8" height="5" fill="#d8a12e"/>
  <rect x="39" y="44" width="8" height="5" fill="#d8a12e"/>
  <rect x="54" y="41" width="8" height="5" fill="#d8a12e"/>
  <rect x="66" y="37" width="8" height="5" fill="#d8a12e"/>
  <rect x="54" y="18" width="4" height="4" fill="#ffffff"/>
  <rect x="56" y="19" width="2" height="2" fill="#111111"/>
  <rect x="61" y="29" width="10" height="3" fill="#ffffff"/>
  <rect x="67" y="29" width="5" height="5" fill="#ffffff"/>
</svg>
