<svg xmlns="http://www.w3.org/2000/svg" width="96" height="64" viewBox="0 0 96 64">
  <rect width="96" height="64" fill="none"/>
  <rect x="10" y="24" width="44" height="20" fill="#191919"/>
  <rect x="16" y="18" width="26" height="8" fill="#262626"/>
  <rect x="46" y="22" width="20" height="18" fill="#221b18"/>
  <rect x="58" y="26" width="12" height="10" fill="#d47e27"/>
  <rect x="66" y="29" width="8" height="7" fill="#fff0d9"/>
  <rect x="74" y="31" width="6" height="5" fill="#d47e27"/>
  <rect x="59" y="36" width="12" height="7" fill="#fff0d9"/>
  <rect x="40" y="16" width="8" height="9" fill="#1a1a1a"/>
  <rect x="42" y="13" width="4" height="5" fill="#d8a12e"/>
  <rect x="24" y="12" width="9" height="8" fill="#1a1a1a"/>
  <rect x="27" y="10" width="3" height="4" fill="#d8a12e"/>
  <rect x="8" y="16" width="11" height="8" fill="#d8a12e"/>
  <rect x="5" y="18" width="6" height="5" fill="#1a1a1a"/>
  <rect x="17" y="45" width="7" height="10" fill="#141414"/>
  <rect x="18" y="54" width="8" height="4" fill="#f2c985"/>
  <rect x="32" y="40" width="7" height="15" fill="#141414"/>
  <rect x="33" y="54" width="9" height="4" fill="#f2c985"/>
  <rect x="56" y="44" width="7" height="11" fill="#141414"/>
  <rect x="57" y="54" width="8" height="4" fill="#f2c985"/>
  <rect x="67" y="40" width="7" height="15" fill="#141414"/>
  <rect x="68" y="54" width="8" height="4" fill="#f2c985"/>
  <rect x="18" y="46" width="8" height="5" fill="#d8a12e"/>
  <rect x="33" y="42" width="8" height="5" fill="#d8a12e"/>
  <rect x="57" y="46" width="8" height="5" fill="#d8a12e"/>
  <rect x="68" y="42" width="8" height="5" fill="#d8a12e"/>
  <rect x="54" y="21" width="4" height="4" fill="#ffffff"/>
  <rect x="56" y="22" width="2" height="2" fill="#111111"/>
  <rect x="61" y="34" width="11" height="3" fill="#ffffff"/>
  <rect x="67" y="34" width="5" height="5" fill="#ffffff"/>
</svg>
